<svg class="svg-icon" style="width: 1em;height: 1em;vertical-align: middle;fill: currentColor;overflow: hidden;" viewBox="0 0 1024 1024" version="1.1" xmlns="http://www.w3.org/2000/svg"><path d="M509.866667 64C642.133333 64 746.666667 170.666667 746.666667 300.8v25.6c0 89.6-32 177.066667-91.733334 245.333333-14.933333 19.2-12.8 46.933333 6.4 64 4.266667 4.266667 8.533333 6.4 12.8 8.533334L874.666667 725.333333c51.2 21.333333 85.333333 72.533333 85.333333 128 0 59.733333-46.933333 106.666667-106.666667 106.666667H170.666667c-59.733333 0-106.666667-46.933333-106.666667-106.666667 0-55.466667 34.133333-106.666667 85.333333-128l198.4-81.066666c23.466667-10.666667 34.133333-36.266667 25.6-59.733334-2.133333-4.266667-4.266667-8.533333-8.533333-12.8-57.6-68.266667-91.733333-155.733333-91.733333-245.333333V298.666667c0-128 100.266667-230.4 228.266666-234.666667h8.533334z"  /></svg>